PathFileType	4	(X/Y/Z)	./resultDataOpenSim/trcMotMarkerGrf/sub06/qtm-01-02.trc
DataRate	CameraRate	NumFrames	NumMarkers	Units	OrigDataRate	OrigDataStartFrame	OrigNumFrames
250.000000	250.000000	8	24	m	250.000000	1	504
Frame#	Time	L.Toe.Tip			R.Toe.Tip			L.Ankle.Lat			R.Ankle.Lat			L.Ankle.Med			R.Ankle.Med			L.Heel			R.Heel			L.Knee.Lat			R.Knee.Lat			L.Knee.Med			R.Knee.Med			L.Thigh.Upper			R.Thigh.Upper			L.ASIS			R.ASIS			V.Sacral			L.Acromium			R.Acromium			C7			L.Elbow			R.Elbow			L.Wrist.Lat			R.Wrist.Lat
		X1	Y1	Z1	X2	Y2	Z2	X3	Y3	Z3	X4	Y4	Z4	X5	Y5	Z5	X6	Y6	Z6	X7	Y7	Z7	X8	Y8	Z8	X9	Y9	Z9	X10	Y10	Z10	X11	Y11	Z11	X12	Y12	Z12	X13	Y13	Z13	X14	Y14	Z14	X15	Y15	Z15	X16	Y16	Z16	X17	Y17	Z17	X18	Y18	Z18	X19	Y19	Z19	X20	Y20	Z20	X21	Y21	Z21	X22	Y22	Z22	X23	Y23	Z23	X24	Y24	Z24

1	0	-1.5352881	0.031759388	-0.081221928	-1.041439	0.088949728	0.12154834	-1.6556674	0.076034748	-0.097541615	-1.1727892	0.076195778	0.11938106	-1.6453067	0.089646993	-0.013626955	-1.1522457	0.1062237	0.037622697	NaN	NaN	NaN	-1.2088335	0.040251474	0.043911673	-1.5047277	0.41787881	-0.11811625	-1.2427303	0.46211716	0.13236416	-1.5195193	0.42331492	0.0014015162	-1.2491204	0.44428822	0.0057938821	-1.4263459	0.79921738	-0.18908171	-1.4203645	0.79384225	0.16043588	-1.3458098	0.84039459	-0.14470184	-1.335138	0.84677323	0.10054088	-1.520676	0.92572255	-0.0088114705	-1.3533612	1.3300957	-0.19476633	-1.3858661	1.3109643	0.16597763	-1.4434029	1.3626007	-0.019084083	-1.3543294	1.0127499	-0.28043587	-1.5248304	1.0253669	0.20474822	-1.1620578	0.86057833	-0.23537973	-1.4325334	0.80230681	0.25083474
2	0.004	-1.534673	0.03181935	-0.081872222	-1.0255075	0.093288198	0.12060146	-1.6554097	0.076604824	-0.097827638	-1.1561387	0.07725228	0.1203965	-1.6449411	0.090120274	-0.01386517	-1.1375957	0.10723535	0.038059679	NaN	NaN	NaN	-1.1924547	0.039728082	0.045155843	-1.5022499	0.41757882	-0.11840586	-1.2361108	0.4605857	0.1317341	-1.5172306	0.422962	0.001243745	-1.2429789	0.44205593	0.0045132842	-1.4215973	0.7980082	-0.18913496	-1.4140136	0.79219314	0.16037541	-1.3408172	0.83913007	-0.14522958	-1.3288238	0.84519219	0.10048538	-1.5150386	0.92428981	-0.0088014713	-1.3478766	1.3287615	-0.19460313	-1.3804994	1.3094115	0.16619657	-1.4379162	1.3614001	-0.018953208	-1.3472939	1.0113462	-0.280419	-1.5196334	1.0238623	0.20435193	-1.1539649	0.86071256	-0.23436961	-1.429014	0.80058357	0.2508376
3	0.008	-1.5342267	0.031868106	-0.082375487	-1.0100186	0.097686158	0.11984085	-1.6551419	0.077184625	-0.098136335	-1.1400177	0.078319324	0.12122459	-1.6446178	0.090650536	-0.014100639	-1.1231708	0.10836376	0.038416004	NaN	NaN	NaN	-1.1763586	0.039288442	0.04633255	-1.4996128	0.41725636	-0.11865761	-1.2291649	0.45911782	0.13124787	-1.5147525	0.42260406	0.0010662029	-1.2367753	0.43982447	0.0032243652	-1.4168617	0.79673928	-0.18906803	-1.4075549	0.79052244	0.16030512	-1.3357786	0.83787572	-0.145752	-1.3224678	0.84363556	0.10042099	-1.5093856	0.92286959	-0.0087069016	-1.3423814	1.3274238	-0.19445985	-1.3751553	1.307872	0.1664289	-1.4324168	1.3601818	-0.018768087	-1.3402645	1.009942	-0.28038011	-1.5144143	1.0223593	0.20397516	-1.145924	0.86081674	-0.23337738	-1.4254494	0.79887107	0.25083811
4	0.012	-1.5341321	0.031887782	-0.082564872	-0.99515989	0.10218607	0.11922717	-1.6548384	0.077785978	-0.098476788	-1.1246345	0.079443427	0.12178304	-1.6442977	0.091273039	-0.014359583	-1.1091126	0.10963748	0.038630886	NaN	NaN	NaN	-1.1607017	0.038989073	0.04737517	-1.4967692	0.41688465	-0.11887423	-1.2219201	0.45773644	0.13090679	-1.512068	0.42221181	0.00087545812	-1.230461	0.4376299	0.0019292517	-1.4121755	0.79545109	-0.18875605	-1.4009716	0.78881286	0.16024439	-1.3306402	0.83664214	-0.14628484	-1.3160418	0.84210234	0.10033821	-1.5036539	0.9214625	-0.0084111934	-1.3368609	1.3260792	-0.19433739	-1.3698206	1.3063478	0.16667814	-1.4268972	1.3589443	-0.018527376	-1.333236	1.0085328	-0.28031129	-1.5091297	1.0208339	0.20361067	-1.1379859	0.86086004	-0.23243264	-1.4217795	0.79716647	0.2508416
5	0.016	-1.5343814	0.031870657	-0.082439739	-0.98089506	0.10679984	0.11854256	-1.6544764	0.078421085	-0.098845875	-1.1099725	0.080653661	0.12207823	-1.6438541	0.091980488	-0.014688043	-1.0955174	0.11099835	0.038666276	NaN	NaN	NaN	-1.1455288	0.038851271	0.04821562	-1.4937815	0.41644375	-0.11909451	-1.2147162	0.45642791	0.13058533	-1.50921	0.42174828	0.00068067872	-1.2240402	0.43553137	0.00064760544	-1.4075774	0.79425604	-0.18817878	-1.394304	0.7870611	0.16022535	-1.3254177	0.83543208	-0.14687508	-1.3095562	0.84058254	0.10022571	-1.4977766	0.9200702	-0.0077997876	-1.331312	1.3247284	-0.194215	-1.3644855	1.3048355	0.16693861	-1.4213768	1.3576904	-0.018310241	-1.3262117	1.0071177	-0.28020803	-1.5037335	1.0192454	0.20322876	-1.1301746	0.86082805	-0.23154229	-1.417966	0.79546061	0.25085772
6	0.02	-1.5347247	0.031831874	-0.08221686	-0.96713855	0.1114799	0.11760871	-1.6540389	0.079093335	-0.099223974	-1.0959762	0.081916054	0.12213639	-1.6431912	0.092738918	-0.015113401	-1.0824174	0.11237358	0.038501722	NaN	NaN	NaN	-1.1308258	0.038879088	0.048783868	-1.4907024	0.41593689	-0.11935207	-1.2077751	0.45517853	0.13017357	-1.5062144	0.42119485	0.00048585201	-1.2175546	0.43357169	-0.00059015192	-1.4030322	0.79319209	-0.18752143	-1.3876038	0.78527381	0.16024294	-1.3201664	0.83422297	-0.14752866	-1.3030352	0.83906961	0.10007543	-1.4917452	0.91870728	-0.0068482431	-1.3257359	1.3233704	-0.19407167	-1.3591485	1.3033318	0.1672038	-1.4158751	1.3564163	-0.018199927	-1.3191936	1.0056949	-0.28005235	-1.4981972	1.0175675	0.20280677	-1.1224619	0.86072597	-0.23067742	-1.4140233	0.79374751	0.25088651
7	0.024	-1.5349402	0.031791899	-0.082088627	-0.95395924	0.11603949	0.11648114	-1.6535112	0.079792203	-0.099574444	-1.0826401	0.083153634	0.1219652	-1.6423793	0.093528136	-0.015608151	-1.0698086	0.11371168	0.038135008	NaN	NaN	NaN	-1.1166293	0.039059298	0.049004109	-1.4875112	0.41538302	-0.11964984	-1.2010539	0.45398773	0.12965074	-1.503093	0.42056884	0.00028812876	-1.211048	0.43177132	-0.001749611	-1.3984446	0.79218698	-0.18704016	-1.3808781	0.7834732	0.16026532	-1.3148789	0.83298431	-0.14814776	-1.2964972	0.837563	0.099888788	-1.4856512	0.91740236	-0.0056845861	-1.3201381	1.3220023	-0.19390245	-1.3538025	1.301837	0.16747157	-1.4103776	1.3551322	-0.018161853	-1.3121842	1.0042625	-0.27982185	-1.4925491	1.015834	0.20236262	-1.1148209	0.86056042	-0.22981736	-1.4100138	0.79202679	0.25091598
8	0.028	-1.535001	0.031758688	-0.082076393	-0.94156099	0.12019062	0.11540528	-1.6528957	0.08050598	-0.099868699	-1.0699944	0.084288201	0.12155412	-1.6416147	0.094350651	-0.016091275	-1.0577069	0.11497661	0.037583364	NaN	NaN	NaN	-1.103051	0.039346972	0.048808568	-1.4841597	0.41479425	-0.11997094	-1.194434	0.4528563	0.12904893	-1.4997511	0.41990943	6.4315356e-05	-1.2045374	0.43013829	-0.0028012449	-1.3937456	0.79116833	-0.18680288	-1.374034	0.78170001	0.16029037	-1.3094815	0.83171862	-0.1486144	-1.2899434	0.83606876	0.099672304	-1.479634	0.91617758	-0.0045229492	-1.3145189	1.3206258	-0.19370643	-1.348439	1.3003532	0.16774415	-1.4048425	1.3538631	-0.018069457	-1.305189	1.0028272	-0.27951526	-1.4868575	1.0141222	0.20194196	-1.1072543	0.86033215	-0.22896933	-1.4059871	0.79030039	0.25093817
